<svg width="45" height="28" viewBox="0 0 45 28" fill="none" xmlns="http://www.w3.org/2000/svg">
<path d="M28.144 24.1254H16.3662V2.95874H28.144V24.1254Z" fill="#FF5F00"/>
<path d="M17.121 13.5402C17.121 9.24641 19.1313 5.42165 22.262 2.95683C19.9726 1.15442 17.0833 0.0786322 13.9432 0.0786322C6.50938 0.0786322 0.483398 6.10547 0.483398 13.5402C0.483398 20.9749 6.50938 27.0017 13.9432 27.0017C17.0833 27.0017 19.9726 25.9259 22.262 24.1235C19.1313 21.6587 17.121 17.8339 17.121 13.5402Z" fill="#EB001B"/>
<path d="M44.0285 13.5402C44.0285 20.9749 38.0025 27.0017 30.5687 27.0017C27.4286 27.0017 24.5393 25.9259 22.249 24.1235C25.3805 21.6587 27.3909 17.8339 27.3909 13.5402C27.3909 9.24641 25.3805 5.42165 22.249 2.95683C24.5393 1.15442 27.4286 0.0786322 30.5687 0.0786322C38.0025 0.0786322 44.0285 6.10547 44.0285 13.5402Z" fill="#F79E1B"/>
<path d="M10.6119 13.6255C10.6119 13.0375 10.9973 12.5545 11.6269 12.5545C12.2285 12.5545 12.6347 13.0167 12.6347 13.6255C12.6347 14.2344 12.2285 14.6966 11.6269 14.6966C10.9973 14.6966 10.6119 14.2135 10.6119 13.6255ZM13.3204 13.6255V11.9529H12.593V12.359C12.3623 12.0578 12.0122 11.8688 11.5364 11.8688C10.5983 11.8688 9.86292 12.6042 9.86292 13.6255C9.86292 14.6477 10.5983 15.3823 11.5364 15.3823C12.0122 15.3823 12.3623 15.1933 12.593 14.8921V15.2982H13.3204V13.6255ZM37.9009 13.6255C37.9009 13.0375 38.2862 12.5545 38.9159 12.5545C39.5183 12.5545 39.9236 13.0167 39.9236 13.6255C39.9236 14.2344 39.5183 14.6966 38.9159 14.6966C38.2862 14.6966 37.9009 14.2135 37.9009 13.6255ZM40.6102 13.6255V10.6095H39.882V12.359C39.6513 12.0578 39.3012 11.8688 38.8253 11.8688C37.8873 11.8688 37.1519 12.6042 37.1519 13.6255C37.1519 14.6477 37.8873 15.3823 38.8253 15.3823C39.3012 15.3823 39.6513 15.1933 39.882 14.8921V15.2982H40.6102V13.6255ZM22.3494 12.52C22.8181 12.52 23.1193 12.814 23.1962 13.3315H21.4602C21.5379 12.8485 21.8311 12.52 22.3494 12.52ZM22.3639 11.8688C21.3833 11.8688 20.6976 12.5825 20.6976 13.6255C20.6976 14.6894 21.4114 15.3823 22.4127 15.3823C22.9166 15.3823 23.378 15.2566 23.7842 14.9137L23.4277 14.3746C23.1473 14.5981 22.79 14.7246 22.4544 14.7246C21.9857 14.7246 21.5588 14.5075 21.4538 13.9051H23.938C23.9452 13.8146 23.9524 13.7233 23.9524 13.6255C23.9452 12.5825 23.3011 11.8688 22.3639 11.8688ZM31.1469 13.6255C31.1469 13.0375 31.5323 12.5545 32.1619 12.5545C32.7635 12.5545 33.1697 13.0167 33.1697 13.6255C33.1697 14.2344 32.7635 14.6966 32.1619 14.6966C31.5323 14.6966 31.1469 14.2135 31.1469 13.6255ZM33.8554 13.6255V11.9529H33.128V12.359C32.8965 12.0578 32.5472 11.8688 32.0714 11.8688C31.1333 11.8688 30.3979 12.6042 30.3979 13.6255C30.3979 14.6477 31.1333 15.3823 32.0714 15.3823C32.5472 15.3823 32.8965 15.1933 33.128 14.8921V15.2982H33.8554V13.6255ZM27.039 13.6255C27.039 14.6405 27.7455 15.3823 28.8238 15.3823C29.3277 15.3823 29.6633 15.2702 30.027 14.9834L29.6778 14.3954C29.4046 14.5917 29.1178 14.6966 28.8022 14.6966C28.2214 14.6894 27.7944 14.2696 27.7944 13.6255C27.7944 12.9815 28.2214 12.5617 28.8022 12.5545C29.1178 12.5545 29.4046 12.6594 29.6778 12.8557L30.027 12.2677C29.6633 11.9809 29.3277 11.8688 28.8238 11.8688C27.7455 11.8688 27.039 12.6106 27.039 13.6255ZM36.4173 11.8688C35.9975 11.8688 35.7243 12.065 35.5353 12.359V11.9529H34.8143V15.2982H35.5425V13.4229C35.5425 12.8693 35.7804 12.5617 36.2563 12.5617C36.4037 12.5617 36.5575 12.5825 36.7113 12.6458L36.9356 11.9601C36.7746 11.8968 36.5647 11.8688 36.4173 11.8688ZM16.9181 12.2188C16.568 11.9881 16.0857 11.8688 15.5538 11.8688C14.7063 11.8688 14.1607 12.2749 14.1607 12.9398C14.1607 13.4854 14.5669 13.8218 15.3151 13.9268L15.6588 13.9756C16.0577 14.0317 16.246 14.1366 16.246 14.3257C16.246 14.5844 15.98 14.7318 15.4833 14.7318C14.9795 14.7318 14.6158 14.5708 14.3706 14.3818L14.0278 14.9481C14.4267 15.2421 14.9306 15.3823 15.4761 15.3823C16.4422 15.3823 17.0022 14.9273 17.0022 14.2904C17.0022 13.7024 16.5616 13.3948 15.8334 13.2899L15.4905 13.2402C15.1757 13.1986 14.9234 13.1361 14.9234 12.9118C14.9234 12.6666 15.1613 12.52 15.5602 12.52C15.9872 12.52 16.4006 12.6811 16.6032 12.8068L16.9181 12.2188ZM26.3036 11.8688C25.8838 11.8688 25.6106 12.065 25.4224 12.359V11.9529H24.7014V15.2982H25.4288V13.4229C25.4288 12.8693 25.6667 12.5617 26.1426 12.5617C26.29 12.5617 26.4438 12.5825 26.5976 12.6458L26.8219 11.9601C26.6609 11.8968 26.451 11.8688 26.3036 11.8688ZM20.096 11.9529H18.9064V10.9379H18.171V11.9529H17.4925V12.6178H18.171V14.1438C18.171 14.9201 18.4722 15.3823 19.3325 15.3823C19.6482 15.3823 20.0119 15.2846 20.2426 15.1236L20.0327 14.5003C19.8156 14.6261 19.5777 14.6894 19.3886 14.6894C19.0249 14.6894 18.9064 14.4651 18.9064 14.1294V12.6178H20.096V11.9529ZM9.21965 15.2982V13.1986C9.21965 12.4079 8.71577 11.876 7.90346 11.8688C7.47649 11.8616 7.03589 11.9945 6.72747 12.464C6.49676 12.0931 6.13307 11.8688 5.62198 11.8688C5.26469 11.8688 4.91542 11.9737 4.64225 12.3654V11.9529H3.91406V15.2982H4.64866V13.4437C4.64866 12.8629 4.97069 12.5545 5.46817 12.5545C5.95122 12.5545 6.19555 12.8693 6.19555 13.4365V15.2982H6.93095V13.4437C6.93095 12.8629 7.2666 12.5545 7.74966 12.5545C8.24633 12.5545 8.48425 12.8693 8.48425 13.4365V15.2982H9.21965Z" fill="white"/>
</svg>
