<svg width="37" height="33" viewBox="0 0 37 33" fill="none" xmlns="http://www.w3.org/2000/svg">
<path d="M4.94527 23.134H2.15511C1.96418 23.134 1.8018 23.2727 1.77202 23.4612L0.643554 30.6159C0.621115 30.7571 0.730453 30.8844 0.873653 30.8844H2.2057C2.39664 30.8844 2.55901 30.7457 2.58879 30.5568L2.89315 28.6271C2.92252 28.4382 3.0853 28.2994 3.27583 28.2994H4.1591C5.99704 28.2994 7.05779 27.4101 7.3348 25.6476C7.45965 24.8765 7.34011 24.2707 6.97905 23.8464C6.58249 23.3805 5.87914 23.134 4.94527 23.134ZM5.26717 25.7471C5.11459 26.7483 4.34963 26.7483 3.60996 26.7483H3.18893L3.48431 24.8785C3.50185 24.7655 3.59976 24.6823 3.714 24.6823H3.90697C4.41082 24.6823 4.88612 24.6823 5.13172 24.9695C5.27819 25.1409 5.32306 25.3955 5.26717 25.7471Z" fill="#253B80"/>
<path d="M13.2864 25.7148H11.9502C11.8364 25.7148 11.7381 25.798 11.7205 25.911L11.6614 26.2847L11.568 26.1493C11.2787 25.7295 10.6337 25.5891 9.9899 25.5891C8.51343 25.5891 7.25237 26.7074 7.00677 28.2761C6.87907 29.0586 7.06062 29.8068 7.5045 30.3286C7.91166 30.8084 8.49425 31.0083 9.18741 31.0083C10.3771 31.0083 11.0368 30.2433 11.0368 30.2433L10.9772 30.6146C10.9548 30.7566 11.0641 30.8839 11.2065 30.8839H12.41C12.6014 30.8839 12.7629 30.7451 12.7931 30.5562L13.5152 25.9832C13.5381 25.8425 13.4292 25.7148 13.2864 25.7148ZM11.4239 28.3152C11.295 29.0785 10.6892 29.591 9.91647 29.591C9.52848 29.591 9.21842 29.4665 9.01932 29.2307C8.82186 28.9965 8.74679 28.6632 8.80962 28.292C8.92998 27.5352 9.54602 27.006 10.3069 27.006C10.6863 27.006 10.9948 27.1321 11.1979 27.3699C11.4015 27.6102 11.4823 27.9456 11.4239 28.3152Z" fill="#253B80"/>
<path d="M20.401 25.7146H19.0583C18.9302 25.7146 18.8099 25.7782 18.7372 25.8847L16.8854 28.6125L16.1005 25.9912C16.0511 25.8272 15.8997 25.7146 15.7284 25.7146H14.409C14.2487 25.7146 14.1373 25.8713 14.1883 26.0222L15.6672 30.3623L14.2768 32.3251C14.1675 32.4797 14.2776 32.6923 14.4665 32.6923H15.8075C15.9348 32.6923 16.054 32.6302 16.1262 32.5258L20.5919 26.0797C20.6988 25.9255 20.589 25.7146 20.401 25.7146Z" fill="#253B80"/>
<path d="M24.8476 23.1338H22.0571C21.8665 23.1338 21.7041 23.2725 21.6744 23.461L20.5459 30.6157C20.5235 30.7569 20.6328 30.8842 20.7752 30.8842H22.2072C22.3402 30.8842 22.454 30.7871 22.4748 30.6549L22.7951 28.6268C22.8245 28.4379 22.9872 28.2992 23.1778 28.2992H24.0606C25.899 28.2992 26.9593 27.4098 27.2367 25.6473C27.362 24.8763 27.2416 24.2704 26.8806 23.8461C26.4844 23.3802 25.7815 23.1338 24.8476 23.1338ZM25.1695 25.7469C25.0173 26.7481 24.2524 26.7481 23.5123 26.7481H23.0917L23.3875 24.8783C23.405 24.7653 23.5021 24.6821 23.6168 24.6821H23.8097C24.3132 24.6821 24.7889 24.6821 25.0345 24.9693C25.1809 25.1406 25.2254 25.3952 25.1695 25.7469Z" fill="#179BD7"/>
<path d="M33.1879 25.7148H31.8526C31.738 25.7148 31.6405 25.798 31.6233 25.911L31.5642 26.2847L31.4704 26.1493C31.1811 25.7295 30.5365 25.5891 29.8927 25.5891C28.4162 25.5891 27.1556 26.7074 26.91 28.2761C26.7827 29.0586 26.9634 29.8068 27.4073 30.3286C27.8153 30.8084 28.3971 31.0083 29.0902 31.0083C30.2799 31.0083 30.9396 30.2433 30.9396 30.2433L30.88 30.6146C30.8576 30.7566 30.9669 30.8839 31.1101 30.8839H32.3132C32.5038 30.8839 32.6661 30.7451 32.6959 30.5562L33.4185 25.9832C33.4405 25.8425 33.3311 25.7148 33.1879 25.7148ZM31.3255 28.3152C31.1974 29.0785 30.5908 29.591 29.818 29.591C29.4309 29.591 29.12 29.4665 28.9209 29.2307C28.7234 28.9965 28.6492 28.6632 28.7112 28.292C28.8324 27.5352 29.4476 27.006 30.2085 27.006C30.5879 27.006 30.8963 27.1321 31.0995 27.3699C31.3039 27.6102 31.3847 27.9456 31.3255 28.3152Z" fill="#179BD7"/>
<path d="M34.7614 23.3299L33.6162 30.6156C33.5938 30.7568 33.7031 30.8841 33.8455 30.8841H34.9968C35.1882 30.8841 35.3505 30.7454 35.3799 30.5565L36.5092 23.4022C36.5316 23.261 36.4223 23.1333 36.2799 23.1333H34.9907C34.8769 23.1337 34.7789 23.2169 34.7614 23.3299Z" fill="#179BD7"/>
<path d="M15.9759 17.9087L16.2902 15.9119L15.59 15.8956H12.2461L14.5699 1.16109C14.5771 1.11661 14.6006 1.07514 14.6348 1.04568C14.6691 1.01623 14.713 1 14.7587 1H20.3969C22.2687 1 23.5604 1.38951 24.2348 2.1583C24.551 2.51896 24.7524 2.89584 24.8498 3.31059C24.9519 3.74578 24.9537 4.26572 24.854 4.89988L24.8468 4.94616V5.3525L25.1629 5.53162C25.4292 5.67288 25.6408 5.83457 25.8031 6.01971C26.0736 6.32807 26.2485 6.71998 26.3224 7.18462C26.3988 7.66249 26.3735 8.23112 26.2485 8.87489C26.1042 9.61543 25.871 10.2604 25.556 10.7882C25.2663 11.2744 24.8972 11.6778 24.4591 11.9903C24.0407 12.2873 23.5436 12.5127 22.9816 12.6569C22.437 12.7988 21.8161 12.8703 21.135 12.8703H20.6962C20.3825 12.8703 20.0777 12.9833 19.8385 13.1859C19.5986 13.3927 19.4399 13.6752 19.3913 13.9842L19.3582 14.1639L18.8028 17.6833L18.7775 17.8125C18.7709 17.8534 18.7595 17.8738 18.7427 17.8876C18.7277 17.9003 18.706 17.9087 18.685 17.9087H15.9759Z" fill="#253B80"/>
<path d="M25.4623 4.99316C25.4455 5.10076 25.4262 5.21076 25.4046 5.32376C24.6611 9.14129 22.1172 10.4601 18.8683 10.4601H17.2141C16.8168 10.4601 16.482 10.7486 16.4201 11.1405L15.5732 16.5119L15.3333 18.0344C15.2931 18.2917 15.4914 18.5237 15.7511 18.5237H18.685C19.0324 18.5237 19.3276 18.2713 19.3823 17.9286L19.4111 17.7796L19.9635 14.274L19.999 14.0817C20.0531 13.7378 20.3488 13.4854 20.6963 13.4854H21.1351C23.9776 13.4854 26.2029 12.3313 26.8532 8.99162C27.1249 7.59649 26.9843 6.43157 26.2654 5.61229C26.0478 5.36524 25.7779 5.16027 25.4623 4.99316Z" fill="#179BD7"/>
<path d="M24.6843 4.6829C24.5707 4.64984 24.4535 4.61979 24.3333 4.59274C24.2125 4.56629 24.0886 4.54285 23.9612 4.52241C23.5152 4.45028 23.0265 4.41602 22.503 4.41602H18.0837C17.9749 4.41602 17.8716 4.44066 17.779 4.48514C17.5752 4.58312 17.4237 4.77607 17.3871 5.0123L16.447 10.9667L16.4199 11.1404C16.4818 10.7485 16.8166 10.46 17.214 10.46H18.8682C22.1171 10.46 24.6609 9.14059 25.4044 5.32366C25.4267 5.21066 25.4453 5.10066 25.4621 4.99306C25.274 4.89328 25.0702 4.80793 24.8508 4.73519C24.7967 4.71716 24.7408 4.69973 24.6843 4.6829Z" fill="#222D65"/>
<path d="M17.3883 5.01232C17.4249 4.77609 17.5764 4.58314 17.7802 4.48576C17.8733 4.44128 17.9761 4.41664 18.0849 4.41664H22.5041C23.0277 4.41664 23.5164 4.4509 23.9624 4.52303C24.0898 4.54347 24.2136 4.56691 24.3345 4.59336C24.4547 4.62041 24.5719 4.65046 24.6855 4.68352C24.742 4.70035 24.7979 4.71778 24.8526 4.73521C25.072 4.80795 25.2758 4.8939 25.4639 4.99308C25.6851 3.58232 25.4621 2.62178 24.6993 1.752C23.8584 0.794465 22.3406 0.384521 20.3985 0.384521H14.7603C14.3636 0.384521 14.0252 0.673045 13.9638 1.06556L11.6154 15.9516C11.5691 16.2461 11.7963 16.5118 12.0932 16.5118H15.5742L16.4481 10.9667L17.3883 5.01232Z" fill="#253B80"/>
</svg>
